<?xml version="1.0" encoding="UTF-8"?>
<svg id="Layer_1" data-name="Layer 1" xmlns="http://www.w3.org/2000/svg" xmlns:xlink="http://www.w3.org/1999/xlink" viewBox="0 0 1500 1500">
  <defs>
    <style>
      .cls-1 {
        fill: url(#linear-gradient-38);
      }

      .cls-1, .cls-2, .cls-3, .cls-4, .cls-5, .cls-6, .cls-7, .cls-8, .cls-9, .cls-10, .cls-11, .cls-12, .cls-13, .cls-14, .cls-15, .cls-16, .cls-17, .cls-18, .cls-19, .cls-20, .cls-21, .cls-22, .cls-23, .cls-24, .cls-25, .cls-26, .cls-27, .cls-28, .cls-29, .cls-30, .cls-31, .cls-32, .cls-33, .cls-34, .cls-35, .cls-36, .cls-37, .cls-38, .cls-39, .cls-40, .cls-41, .cls-42, .cls-43, .cls-44, .cls-45, .cls-46, .cls-47, .cls-48, .cls-49, .cls-50, .cls-51, .cls-52, .cls-53, .cls-54, .cls-55, .cls-56, .cls-57, .cls-58, .cls-59, .cls-60, .cls-61, .cls-62, .cls-63, .cls-64, .cls-65, .cls-66, .cls-67, .cls-68, .cls-69, .cls-70 {
        stroke-width: 0px;
      }

      .cls-2 {
        fill: url(#linear-gradient-12);
      }

      .cls-3 {
        fill: url(#linear-gradient-17);
      }

      .cls-4 {
        fill: url(#linear-gradient-19);
      }

      .cls-5 {
        fill: url(#linear-gradient-33);
      }

      .cls-6 {
        fill: url(#linear-gradient);
      }

      .cls-7 {
        fill: url(#linear-gradient-62);
      }

      .cls-8 {
        fill: url(#linear-gradient-67);
      }

      .cls-9 {
        fill: url(#linear-gradient-57);
      }

      .cls-10 {
        fill: url(#linear-gradient-21);
      }

      .cls-11 {
        fill: url(#linear-gradient-6);
      }

      .cls-12 {
        fill: url(#linear-gradient-42);
      }

      .cls-13 {
        fill: url(#linear-gradient-15);
      }

      .cls-14 {
        fill: url(#linear-gradient-11);
      }

      .cls-15 {
        fill: url(#linear-gradient-5);
      }

      .cls-16 {
        fill: url(#linear-gradient-31);
      }

      .cls-17 {
        fill: url(#linear-gradient-58);
      }

      .cls-18 {
        fill: url(#linear-gradient-63);
      }

      .cls-19 {
        fill: url(#linear-gradient-34);
      }

      .cls-20 {
        fill: url(#linear-gradient-41);
      }

      .cls-21 {
        fill: url(#linear-gradient-40);
      }

      .cls-22 {
        fill: url(#linear-gradient-66);
      }

      .cls-23 {
        fill: url(#linear-gradient-13);
      }

      .cls-24 {
        fill: url(#linear-gradient-23);
      }

      .cls-25 {
        fill: url(#linear-gradient-25);
      }

      .cls-26 {
        fill: url(#linear-gradient-43);
      }

      .cls-27 {
        fill: url(#linear-gradient-16);
      }

      .cls-28 {
        fill: url(#linear-gradient-22);
      }

      .cls-29 {
        fill: url(#linear-gradient-54);
      }

      .cls-30 {
        fill: url(#linear-gradient-55);
      }

      .cls-31 {
        fill: url(#linear-gradient-35);
      }

      .cls-32 {
        fill: url(#linear-gradient-50);
      }

      .cls-33 {
        fill: url(#linear-gradient-32);
      }

      .cls-34 {
        fill: url(#linear-gradient-60);
      }

      .cls-35 {
        fill: url(#linear-gradient-59);
      }

      .cls-36 {
        fill: url(#linear-gradient-20);
      }

      .cls-37 {
        fill: url(#linear-gradient-14);
      }

      .cls-38 {
        fill: url(#linear-gradient-2);
      }

      .cls-39 {
        fill: url(#linear-gradient-52);
      }

      .cls-40 {
        fill: url(#linear-gradient-45);
      }

      .cls-41 {
        fill: url(#linear-gradient-7);
      }

      .cls-42 {
        fill: url(#linear-gradient-39);
      }

      .cls-43 {
        fill: url(#linear-gradient-3);
      }

      .cls-44 {
        fill: url(#linear-gradient-69);
      }

      .cls-45 {
        fill: url(#linear-gradient-9);
      }

      .cls-46 {
        fill: url(#linear-gradient-27);
      }

      .cls-47 {
        fill: url(#linear-gradient-53);
      }

      .cls-48 {
        fill: url(#linear-gradient-65);
      }

      .cls-49 {
        fill: url(#linear-gradient-36);
      }

      .cls-50 {
        fill: url(#linear-gradient-48);
      }

      .cls-51 {
        fill: url(#linear-gradient-49);
      }

      .cls-52 {
        fill: url(#linear-gradient-8);
      }

      .cls-53 {
        fill: url(#linear-gradient-47);
      }

      .cls-54 {
        fill: url(#linear-gradient-24);
      }

      .cls-55 {
        fill: url(#linear-gradient-26);
      }

      .cls-56 {
        fill: url(#linear-gradient-61);
      }

      .cls-57 {
        fill: url(#linear-gradient-18);
      }

      .cls-58 {
        fill: url(#linear-gradient-51);
      }

      .cls-59 {
        fill: url(#linear-gradient-30);
      }

      .cls-60 {
        fill: url(#linear-gradient-44);
      }

      .cls-61 {
        fill: url(#linear-gradient-68);
      }

      .cls-62 {
        fill: url(#linear-gradient-29);
      }

      .cls-63 {
        fill: url(#linear-gradient-46);
      }

      .cls-64 {
        fill: url(#linear-gradient-64);
      }

      .cls-65 {
        fill: url(#linear-gradient-28);
      }

      .cls-66 {
        fill: url(#linear-gradient-56);
      }

      .cls-67 {
        fill: url(#linear-gradient-10);
      }

      .cls-68 {
        fill: url(#linear-gradient-70);
      }

      .cls-69 {
        fill: url(#linear-gradient-4);
      }

      .cls-70 {
        fill: url(#linear-gradient-37);
      }
    </style>
    <linearGradient id="linear-gradient" x1="612.7" y1="305.55" x2="615.28" y2="142.01" gradientUnits="userSpaceOnUse">
      <stop offset=".08" stop-color="#d3af3e"/>
      <stop offset=".16" stop-color="#dec147"/>
      <stop offset=".24" stop-color="#e6ce4e"/>
      <stop offset=".32" stop-color="#e9d351"/>
      <stop offset=".53" stop-color="#d3a131"/>
      <stop offset=".75" stop-color="#f2ea74"/>
      <stop offset=".92" stop-color="#d9b234"/>
    </linearGradient>
    <linearGradient id="linear-gradient-2" x1="1018.63" y1="349.03" x2="1021.21" y2="185.49" xlink:href="#linear-gradient"/>
    <linearGradient id="linear-gradient-3" x1="477.39" y1="349.03" x2="479.97" y2="185.49" xlink:href="#linear-gradient"/>
    <linearGradient id="linear-gradient-4" x1="748.01" y1="257.81" x2="750.58" y2="94.28" xlink:href="#linear-gradient"/>
    <linearGradient id="linear-gradient-5" x1="883.32" y1="305.55" x2="885.9" y2="142.01" xlink:href="#linear-gradient"/>
    <linearGradient id="linear-gradient-6" x1="411.94" y1="1460.33" x2="408.61" y2="-171.78" gradientUnits="userSpaceOnUse">
      <stop offset=".08" stop-color="#d3a431"/>
      <stop offset=".12" stop-color="#dcb543"/>
      <stop offset=".19" stop-color="#e7ca59"/>
      <stop offset=".26" stop-color="#edd766"/>
      <stop offset=".32" stop-color="#f0dc6b"/>
      <stop offset=".33" stop-color="#edd766"/>
      <stop offset=".53" stop-color="#d49f31"/>
      <stop offset=".75" stop-color="#f5e47b"/>
      <stop offset=".92" stop-color="#dab437"/>
    </linearGradient>
    <linearGradient id="linear-gradient-7" x1="473.19" y1="1460.2" x2="469.85" y2="-171.91" xlink:href="#linear-gradient-6"/>
    <linearGradient id="linear-gradient-8" x1="276.79" y1="1460.6" x2="273.45" y2="-171.51" xlink:href="#linear-gradient-6"/>
    <linearGradient id="linear-gradient-9" x1="361.88" y1="1460.43" x2="358.54" y2="-171.68" xlink:href="#linear-gradient-6"/>
    <linearGradient id="linear-gradient-10" x1="179.87" y1="1460.8" x2="176.53" y2="-171.31" xlink:href="#linear-gradient-6"/>
    <linearGradient id="linear-gradient-11" x1="277.51" y1="1460.6" x2="274.17" y2="-171.51" xlink:href="#linear-gradient-6"/>
    <linearGradient id="linear-gradient-12" x1="124.87" y1="1460.91" x2="121.53" y2="-171.2" xlink:href="#linear-gradient-6"/>
    <linearGradient id="linear-gradient-13" x1="230.57" y1="1460.7" x2="227.24" y2="-171.41" xlink:href="#linear-gradient-6"/>
    <linearGradient id="linear-gradient-14" x1="102.81" y1="1460.96" x2="99.47" y2="-171.15" xlink:href="#linear-gradient-6"/>
    <linearGradient id="linear-gradient-15" x1="209.88" y1="1460.74" x2="206.54" y2="-171.37" xlink:href="#linear-gradient-6"/>
    <linearGradient id="linear-gradient-16" x1="111.75" y1="1460.94" x2="108.42" y2="-171.17" xlink:href="#linear-gradient-6"/>
    <linearGradient id="linear-gradient-17" x1="220.66" y1="1460.72" x2="217.32" y2="-171.39" xlink:href="#linear-gradient-6"/>
    <linearGradient id="linear-gradient-18" x1="152.86" y1="1460.86" x2="149.53" y2="-171.25" xlink:href="#linear-gradient-6"/>
    <linearGradient id="linear-gradient-19" x1="260.06" y1="1460.64" x2="256.72" y2="-171.47" xlink:href="#linear-gradient-6"/>
    <linearGradient id="linear-gradient-20" x1="225.44" y1="1460.71" x2="222.1" y2="-171.4" xlink:href="#linear-gradient-6"/>
    <linearGradient id="linear-gradient-21" x1="325.36" y1="1460.5" x2="322.02" y2="-171.61" xlink:href="#linear-gradient-6"/>
    <linearGradient id="linear-gradient-22" x1="751.37" y1="1459.63" x2="748.03" y2="-172.48" xlink:href="#linear-gradient-6"/>
    <linearGradient id="linear-gradient-23" x1="204.84" y1="1460.75" x2="203.55" y2="828.11" xlink:href="#linear-gradient-6"/>
    <linearGradient id="linear-gradient-24" x1="178.94" y1="853.02" x2="178.51" y2="640.79" xlink:href="#linear-gradient-6"/>
    <linearGradient id="linear-gradient-25" x1="134.5" y1="962.17" x2="133.64" y2="538.88" xlink:href="#linear-gradient-6"/>
    <linearGradient id="linear-gradient-26" x1="143.45" y1="1460.88" x2="140.12" y2="-171.23" xlink:href="#linear-gradient-6"/>
    <linearGradient id="linear-gradient-27" x1="186.37" y1="983.38" x2="185.94" y2="772.31" xlink:href="#linear-gradient-6"/>
    <linearGradient id="linear-gradient-28" x1="223.3" y1="1460.71" x2="219.96" y2="-171.4" xlink:href="#linear-gradient-6"/>
    <linearGradient id="linear-gradient-29" x1="518.51" y1="1460.11" x2="515.17" y2="-172" xlink:href="#linear-gradient-6"/>
    <linearGradient id="linear-gradient-30" x1="390.14" y1="1460.37" x2="389.27" y2="1036.2" xlink:href="#linear-gradient-6"/>
    <linearGradient id="linear-gradient-31" x1="359.05" y1="1460.43" x2="357.76" y2="829.38" xlink:href="#linear-gradient-6"/>
    <linearGradient id="linear-gradient-32" x1="181.03" y1="1460.8" x2="177.69" y2="-171.31" xlink:href="#linear-gradient-6"/>
    <linearGradient id="linear-gradient-33" x1="1088.72" y1="1458.94" x2="1085.38" y2="-173.17" xlink:href="#linear-gradient-6"/>
    <linearGradient id="linear-gradient-34" x1="1027.85" y1="1459.07" x2="1024.51" y2="-173.04" xlink:href="#linear-gradient-6"/>
    <linearGradient id="linear-gradient-35" x1="1224.21" y1="1458.67" x2="1220.88" y2="-173.44" xlink:href="#linear-gradient-6"/>
    <linearGradient id="linear-gradient-36" x1="1139.4" y1="1458.84" x2="1136.06" y2="-173.27" xlink:href="#linear-gradient-6"/>
    <linearGradient id="linear-gradient-37" x1="1321.62" y1="1458.47" x2="1318.28" y2="-173.64" xlink:href="#linear-gradient-6"/>
    <linearGradient id="linear-gradient-38" x1="1224.09" y1="1458.67" x2="1220.76" y2="-173.44" xlink:href="#linear-gradient-6"/>
    <linearGradient id="linear-gradient-39" x1="1377.18" y1="1458.35" x2="1373.84" y2="-173.76" xlink:href="#linear-gradient-6"/>
    <linearGradient id="linear-gradient-40" x1="1271.53" y1="1458.57" x2="1268.19" y2="-173.54" xlink:href="#linear-gradient-6"/>
    <linearGradient id="linear-gradient-41" x1="1399.85" y1="1458.31" x2="1396.51" y2="-173.8" xlink:href="#linear-gradient-6"/>
    <linearGradient id="linear-gradient-42" x1="1292.83" y1="1458.52" x2="1289.49" y2="-173.58" xlink:href="#linear-gradient-6"/>
    <linearGradient id="linear-gradient-43" x1="1391.41" y1="1458.32" x2="1388.07" y2="-173.79" xlink:href="#linear-gradient-6"/>
    <linearGradient id="linear-gradient-44" x1="1282.52" y1="1458.55" x2="1279.19" y2="-173.56" xlink:href="#linear-gradient-6"/>
    <linearGradient id="linear-gradient-45" x1="1350.81" y1="1458.41" x2="1347.48" y2="-173.7" xlink:href="#linear-gradient-6"/>
    <linearGradient id="linear-gradient-46" x1="1243.57" y1="1458.63" x2="1240.23" y2="-173.48" xlink:href="#linear-gradient-6"/>
    <linearGradient id="linear-gradient-47" x1="1278.78" y1="1458.55" x2="1275.44" y2="-173.56" xlink:href="#linear-gradient-6"/>
    <linearGradient id="linear-gradient-48" x1="1178.67" y1="1458.76" x2="1175.34" y2="-173.35" xlink:href="#linear-gradient-6"/>
    <linearGradient id="linear-gradient-49" x1="1298.6" y1="1458.51" x2="1297.3" y2="824.13" xlink:href="#linear-gradient-6"/>
    <linearGradient id="linear-gradient-50" x1="1321.49" y1="853.46" x2="1321.06" y2="640.36" xlink:href="#linear-gradient-6"/>
    <linearGradient id="linear-gradient-51" x1="1366.36" y1="961.75" x2="1365.5" y2="539.3" xlink:href="#linear-gradient-6"/>
    <linearGradient id="linear-gradient-52" x1="1358.88" y1="1458.39" x2="1355.55" y2="-173.72" xlink:href="#linear-gradient-6"/>
    <linearGradient id="linear-gradient-53" x1="1314.06" y1="983.17" x2="1313.63" y2="772.53" xlink:href="#linear-gradient-6"/>
    <linearGradient id="linear-gradient-54" x1="1278.56" y1="1458.55" x2="1275.22" y2="-173.56" xlink:href="#linear-gradient-6"/>
    <linearGradient id="linear-gradient-55" x1="982.3" y1="1459.16" x2="978.96" y2="-172.95" xlink:href="#linear-gradient-6"/>
    <linearGradient id="linear-gradient-56" x1="1110.9" y1="1458.9" x2="1110.03" y2="1036.02" xlink:href="#linear-gradient-6"/>
    <linearGradient id="linear-gradient-57" x1="1141.88" y1="1458.83" x2="1140.58" y2="826.05" xlink:href="#linear-gradient-6"/>
    <linearGradient id="linear-gradient-58" x1="1320.77" y1="1458.47" x2="1317.43" y2="-173.64" xlink:href="#linear-gradient-6"/>
    <linearGradient id="linear-gradient-59" x1="408.24" y1="691.87" x2="702.38" y2="691.87" xlink:href="#linear-gradient"/>
    <linearGradient id="linear-gradient-60" x1="726.2" y1="689.53" x2="843.52" y2="689.53" xlink:href="#linear-gradient"/>
    <linearGradient id="linear-gradient-61" x1="877.53" y1="689.53" x2="1091.76" y2="689.53" xlink:href="#linear-gradient"/>
    <linearGradient id="linear-gradient-62" x1="385.21" y1="943.07" x2="460.84" y2="943.07" xlink:href="#linear-gradient"/>
    <linearGradient id="linear-gradient-63" x1="462.58" y1="942.2" x2="541.23" y2="942.2" xlink:href="#linear-gradient"/>
    <linearGradient id="linear-gradient-64" x1="547.97" y1="943.07" x2="631.39" y2="943.07" xlink:href="#linear-gradient"/>
    <linearGradient id="linear-gradient-65" x1="638.02" y1="943.71" x2="718.53" y2="943.71" xlink:href="#linear-gradient"/>
    <linearGradient id="linear-gradient-66" x1="723.88" y1="943.07" x2="786.12" y2="943.07" xlink:href="#linear-gradient"/>
    <linearGradient id="linear-gradient-67" x1="793.22" y1="943.07" x2="876.64" y2="943.07" xlink:href="#linear-gradient"/>
    <linearGradient id="linear-gradient-68" x1="878.97" y1="942.2" x2="957.61" y2="942.2" xlink:href="#linear-gradient"/>
    <linearGradient id="linear-gradient-69" x1="962.15" y1="943.65" x2="1046.38" y2="943.65" xlink:href="#linear-gradient"/>
    <linearGradient id="linear-gradient-70" x1="1052.54" y1="943.07" x2="1114.79" y2="943.07" xlink:href="#linear-gradient"/>
  </defs>
  <polygon class="cls-6" points="614.69 126.16 637.26 171.89 687.73 179.23 651.21 214.82 659.83 265.09 614.69 241.36 569.55 265.09 578.17 214.82 541.65 179.23 592.12 171.89 614.69 126.16"/>
  <polygon class="cls-38" points="1020.62 169.64 1043.19 215.37 1093.66 222.71 1057.14 258.3 1065.76 308.57 1020.62 284.84 975.48 308.57 984.1 258.3 947.58 222.71 998.05 215.37 1020.62 169.64"/>
  <polygon class="cls-43" points="479.38 169.64 501.95 215.37 552.42 222.71 515.9 258.3 524.52 308.57 479.38 284.84 434.24 308.57 442.86 258.3 406.34 222.71 456.81 215.37 479.38 169.64"/>
  <polygon class="cls-69" points="750 78.43 772.57 124.16 823.03 131.49 786.52 167.09 795.14 217.35 750 193.62 704.86 217.35 713.48 167.09 676.96 131.49 727.43 124.16 750 78.43"/>
  <polygon class="cls-15" points="885.31 126.16 907.88 171.89 958.35 179.23 921.83 214.82 930.45 265.09 885.31 241.36 840.17 265.09 848.79 214.82 812.27 179.23 862.74 171.89 885.31 126.16"/>
  <g>
    <path class="cls-11" d="m448.48,1274.61c-17.05-.79-35.64,2.38-53.38,6.68-17.79,4.36-34.69,9.66-47.39,14.02-12.54,4.22-20.8,7.44-20.8,7.44,0,0,8.08,4.7,20.96,10.19,12.94,5.52,30.83,11.8,50.37,15.18,19.35,3.35,40.52,3.8,58.95-1.5,18.3-5.2,33.9-16.39,39.1-34.08-5.86,4.44-13.41,7.84-22.02,9.48-8.61,1.64-16.92,1.27-24-.74,5.83-4.46,13.44-7.87,22.04-9.5,8.61-1.64,16.9-1.27,23.97.74,0-.03.03-.05.03-.08-8.05-6.07-15.47-10.4-23.31-13.23-7.89-2.77-15.95-4.25-24.53-4.59Z"/>
    <path class="cls-41" d="m429.18,1170.12c1.98,11.88,5.78,27.88,12.78,43.4,6.92,15.55,16.98,30.7,30.17,40.63,6.57,4.88,13.91,8.61,21.83,10.11,7.63,1.48,15.79,1.16,23.79-2.09-6.52-2.93-12.94-7.76-18.37-14.23-5.65-6.71-9.37-14.15-11.09-21.3,6.73,2.93,13.44,7.87,19.06,14.57,5.49,6.52,9.21,13.78,10.96,20.75.05-.03.08-.03.13-.05.4-18.56-4.67-33.29-12.62-46.17-8-12.83-19.32-23.92-31.02-33.45-11.7-9.5-23.73-17.42-32.74-23.13-9.06-5.65-15.18-8.98-15.18-8.98,0,0,.03,2.03.4,5.52.32,3.46.92,8.47,1.9,14.41Z"/>
    <path class="cls-52" d="m358.53,1232.58c-7.15,1.5-15.44,1.4-23.89-.79-8.47-2.16-15.84-6.05-21.41-10.85,7.18-1.56,15.52-1.43,24,.74,8.47,2.16,15.81,6.02,21.36,10.82t.05-.05c-8.82-15.81-22.26-24.34-38.33-29.33-16.05-4.91-34.79-6.26-53.22-6.84-18.35-.55-36.62-.11-50.29-.05-14.07.24-22.86.4-22.86.4,0,0,1.72,1.87,4.91,4.99,3.17,2.93,7.79,7.29,13.52,11.99,11.62,9.58,27.98,20.72,46.07,28.91,18.06,8.16,37.78,13.36,55.57,12.51,17.77-.87,33.48-7.6,44.54-22.44Z"/>
    <path class="cls-45" d="m347.87,1184.72c10.09,12.8,24.18,21.23,41.71,20.33-5.97-4.22-11.48-10.4-15.6-18.11-4.14-7.71-6.28-15.76-6.49-23.1,5.99,4.22,11.54,10.45,15.68,18.16,4.14,7.68,6.28,15.73,6.49,23.05,7.1-17.11,5.91-33.45,1.06-48.42-4.8-14.97-13.36-28.67-22.02-40.63-8.71-11.99-17.56-22.18-24.08-29.51-3.17-3.67-5.89-6.6-7.84-8.58-1.8-2.09-2.9-3.12-2.9-3.12,0,0-.63,1.82-1.5,5.1-.84,3.33-1.85,8.03-2.75,13.83-1.93,11.7-2.77,27.64-.26,44.38,2.46,16.66,8.4,33.74,18.51,46.62Z"/>
    <path class="cls-67" d="m249.19,1143.17v-.03c-7.18,1.56-15.52,1.43-24-.74-8.5-2.16-15.87-6.05-21.41-10.88,7.18-1.53,15.5-1.43,24,.77,8.47,2.16,15.84,6.05,21.41,10.85-4.14-17.77-14.18-29.86-27.69-40.47-3.27-2.67-6.97-5.1-10.64-7.63-3.72-2.51-7.66-4.88-11.67-7.26-3.99-2.53-8.1-4.96-12.3-7.34-4.01-2.19-7.92-4.12-11.98-6.05-16-7.52-32.47-13.38-45.04-17.4-12.65-3.96-20.8-6.28-20.8-6.28,0,0,.77,2.09,2.35,5.65,1.69,3.41,4.28,8.37,7.52,14.15,3.27,5.81,7.21,12.49,11.83,19.59,2.32,3.51,4.78,7.13,7.39,10.74l2.09,2.77,2.53,3.43c1.82,2.22,3.62,4.49,5.39,6.73,14.73,17.58,32.97,31.02,50.87,36.67,17.93,5.73,35.32,3.85,50.16-7.29Z"/>
    <path class="cls-14" d="m253.49,1088.6c4.75,15.36,15.84,27.98,32.68,31.92-4.86-5.52-8.82-12.83-11.06-21.3-2.27-8.47-2.48-16.79-1-23.97,4.88,5.49,8.82,12.83,11.09,21.28,2.24,8.47,2.45,16.79.98,24h.03c11.72-14.36,15.44-30.12,16.39-44.93.84-14.86-1.08-28.88-2.67-40.73-.53-4.99-2.53-13.41-4.41-20.01-1.9-6.84-4.01-12.94-5.89-18.03-1.9-5.2-3.72-9.37-4.96-12.3-1.06-2.9-1.69-4.59-1.69-4.59,0,0-1.24,1.69-3.17,4.7-2.06,3.04-4.46,7.29-7.29,12.65-5.6,10.64-12.33,25.61-16.98,42.11-1.19,4.17-2.22,8.42-3.06,12.67-.82,3.96-1.4,8.08-1.77,12.25-.24,4.12-.05,8.21.32,12.38.4,4.12,1.37,8.03,2.46,11.93Z"/>
    <path class="cls-2" d="m120.3,1004.28c3.43,2.93,6.97,5.6,10.69,7.97,14.65,9.42,30.99,13.38,48.73,8.24v-.05c-7.13-.37-14.84-2.56-22.25-6.6-7.71-4.22-13.86-9.79-18.06-15.84,7.34.29,15.36,2.46,23.05,6.68,7.31,3.99,13.25,9.24,17.4,14.92,1.32-8.58.61-16.37-1.64-23.63-1.16-3.72-2.75-7.34-4.75-10.8-1.9-3.51-4.36-6.78-6.63-10.16-9.56-13.28-24.26-24.71-39.1-34.98-14.41-10.3-29.62-19.22-41.21-25.61-11.85-6.39-19.38-10.35-19.38-10.35,0,0,.34,2.27,1.35,6.07,1,3.83,2.61,9.21,4.83,15.71,4.41,12.88,10.56,30.23,20.78,45.99,4.94,7.97,10.43,15.81,16.39,22.78,2.9,3.56,6.31,6.71,9.79,9.66Z"/>
    <path class="cls-23" d="m206.53,987.7c3.43,6.97,8.53,13.12,15.55,18.08.05-.03.13-.08.19-.11-1.72-7.13-1.82-15.42.13-23.92,1.95-8.53,5.62-16,10.3-21.7,1.74,7.15,1.82,15.47-.11,24.02-1.93,8.45-5.54,15.79-10.11,21.46,15.87-9.24,25.03-22.94,29.83-37.83,1.24-3.75,2.14-7.63,2.9-11.48.34-1.93.63-3.93.87-5.81.29-1.98.61-3.96.9-5.99,1.03-7.92,1.27-15.84,1.03-23.5-1.03-15.21-1.93-29.51-3.85-39.92-.87-5.2-1.85-9.48-2.51-12.43-.5-3.04-.79-4.67-.79-4.67,0,0-1.53,1.35-3.99,3.88-2.56,2.51-5.78,6.12-9.53,10.74-7.55,9.27-16.97,22.49-24.6,37.8-7.23,15.15-11.88,32.31-11.77,48.6-.05,4.12.58,8.03,1.56,11.8.92,3.8,2.27,7.47,4.01,10.96Z"/>
    <path class="cls-37" d="m79.6,848.36c2.24,4.07,4.62,8.03,7.34,11.69,2.8,3.56,5.86,6.94,8.98,10.01,12.62,12.22,27.8,19.3,46.15,17.66-6.39-3.35-12.59-8.63-17.66-15.52-5.2-7.05-8.45-14.73-9.69-21.96,6.55,3.35,12.91,8.71,18.11,15.76,5.07,6.89,8.29,14.39,9.58,21.46,3.09-8.34,3.99-16.34,3.11-24.02-.47-3.88-1.35-7.74-2.59-11.51-1.19-3.8-2.46-7.58-4.2-11.25-3.38-7.47-8.13-14.76-13.57-21.81-2.8-3.51-5.6-7.02-8.34-10.53-2.85-3.43-5.76-6.84-8.74-10.16-12.04-13.28-25.4-25.42-34.64-34.53-9.56-8.98-16.29-14.76-16.29-14.76,0,0-.24,9.21.58,23.07.48,6.89,1.87,14.92,3.49,23.55.77,4.3,1.74,8.71,2.83,13.23,1.06,4.46,2.16,9.06,3.91,13.52,3.27,8.98,7.13,17.85,11.64,26.11Z"/>
    <path class="cls-13" d="m190.76,854.27c3.54-8.03,8.55-14.65,14.2-19.35.37,7.34-1.11,15.52-4.65,23.55-3.51,8.03-8.5,14.65-14.15,19.38,17.58-6.05,29.33-17.74,37.04-31.13,1.95-3.38,3.59-6.84,5.07-10.35,1.69-3.56,3.19-7.18,4.46-10.85,2.59-7.34,4.41-14.76,5.65-22.04,1.4-7.18,2.88-14.23,3.62-20.72.37-3.27.63-6.39.87-9.32.21-2.96.32-5.73.66-8.26,1.13-10.11.95-16.74.95-16.74,0,0-6.81,3.75-16.53,10.74-2.4,1.74-4.99,3.72-7.73,5.89-2.77,2.19-5.6,4.57-8.21,7.1-5.41,5.15-11.01,11.04-16.32,17.53-2.67,3.22-5.17,6.65-7.66,10.16-1.16,1.77-2.35,3.62-3.49,5.44-1.03,1.8-2.01,3.67-2.88,5.54-3.64,7.5-6.47,15.31-8.03,23.26-.63,3.91-1.19,7.87-1.11,11.72.21,3.88.82,7.74,1.85,11.4,2.09,7.47,5.83,14.49,11.75,20.59-.37-7.34,1.11-15.52,4.62-23.55Z"/>
    <path class="cls-27" d="m82.24,697.2c2.69,9.16,6.23,17.79,10.75,25.26,8.71,15.02,22.78,25.48,41.05,28.06,0,0,0-.03.03-.03-6.55-3.35-12.88-8.69-18.08-15.76-5.2-7.05-8.45-14.7-9.71-21.94,6.55,3.33,12.91,8.71,18.11,15.76,5.2,7.02,8.42,14.68,9.69,21.91,2.4-3.7,4.14-7.42,5.46-11.22,1.32-3.75,2.59-7.58,3.11-11.38,1.27-7.68.66-15.6-1.19-23.63-1.56-8-4.01-16.1-7.47-24.29-3.46-8.13-7.74-16.34-11.62-24.29-4.12-7.87-8.55-15.6-12.86-22.78-4.46-7.23-8.45-13.73-11.8-19.27-6.92-11.09-11.96-18.32-11.96-18.32,0,0-2.61,8.76-5.36,22.28-1.06,6.89-2.01,14.97-2.64,23.73-.37,4.36-.61,8.87-.71,13.49,0,4.65.29,9.4.71,14.2.82,9.53,2.03,19.14,4.49,28.19Z"/>
    <path class="cls-3" d="m207.21,709.68c-1.4,7.23-4.78,14.84-10.11,21.78-5.31,6.94-11.77,12.2-18.35,15.42,18.4-1.8,31.6-10.3,42.9-20.99,5.54-5.41,10.24-11.51,14.12-17.85,4.3-6.28,8.18-12.78,11.19-19.32,1.64-3.22,2.82-6.44,4.36-9.56,1.53-3.12,2.88-6.2,4.07-9.16,2.51-5.94,4.28-11.51,5.89-16.21,3.64-9.4,5.2-15.76,5.2-15.76,0,0-7.55,1.85-18.74,6.05-11.43,4.12-25.21,11.11-38.89,20.8-3.35,2.43-6.89,5.07-9.9,7.89-3.06,2.82-6.02,5.76-8.76,8.87-5.41,6.23-10.4,13.07-13.67,20.25-3.09,7.23-4.86,14.81-4.86,22.47.05,3.8.4,7.63,1.56,11.38,1.29,3.78,2.96,7.52,5.28,11.17.08,0,.13-.03.21-.03,1.4-7.23,4.78-14.81,10.11-21.75,5.33-6.97,11.8-12.22,18.4-15.44Z"/>
    <path class="cls-57" d="m127.06,579.03c2.56,8.42,6.07,15.87,11.62,22.31,5.49,6.39,12.36,11.54,20.86,15.13-3.91-6.23-6.63-14.07-7.5-22.78-.85-8.71.26-16.98,2.9-23.84,3.91,6.23,6.63,14.1,7.5,22.81.84,8.71-.26,16.95-2.9,23.81v.03h.03c3.27-2.93,6.02-6.1,8.21-9.37,2.45-3.17,4.41-6.57,5.94-10.11,1.56-3.56,2.72-7.29,3.46-11.14.77-3.83,1.06-7.84,1.5-11.8.55-8.08,0-16.53-1.37-25.32-1.32-8.76-2.8-17.42-5.07-26.16-4.46-17.48-9.35-33.92-13.62-46.46-4.33-12.54-7.31-20.57-7.31-20.57,0,0-1.19,1.9-3.06,5.36-1.85,3.51-4.33,8.53-7.1,14.76-5.91,12.3-11.75,29.78-15.44,48.15-1.53,9.42-2.51,18.98-2.51,28.3-.13,4.59.34,9.32,1.08,13.83.66,4.54,1.58,8.9,2.8,13.07Z"/>
    <path class="cls-4" d="m313.29,540.65c1.56-2.48,2.4-3.99,2.4-3.99,0,0-2.01,0-5.44.16-3.54.16-8.37.5-14.23,1.24-5.83.69-12.67,1.82-20.12,3.51-3.64.9-7.58,1.8-11.35,2.98-3.7,1.19-7.58,2.51-11.4,4.07-7.6,3.12-15.52,6.78-22.39,11.35-6.78,4.65-13.04,10.01-18.16,16.05-2.64,3.01-4.65,6.28-6.42,9.69-1.64,3.38-2.98,6.94-3.99,10.61-.9,3.67-1.4,7.44-1.4,11.3.21,3.96.95,7.97,2.24,12.04,3.41-6.49,8.82-12.78,15.92-17.87,7.1-5.12,14.81-8.29,22.04-9.45-3.41,6.49-8.84,12.8-15.94,17.93-7.05,5.07-14.63,8.21-21.81,9.42,9,1.5,17.4,1.03,25.08-.63,7.65-1.77,15.15-4.65,21.75-8.42,3.35-1.93,6.47-4.01,9.53-6.28,1.53-1.14,2.93-2.32,4.36-3.56,1.48-1.14,2.96-2.38,4.41-3.62,5.78-4.96,10.93-10.4,15.5-15.89,4.86-5.41,9.29-10.85,12.99-16.1.92-1.29,1.8-2.59,2.67-3.88.98-1.24,1.79-2.48,2.72-3.62,1.69-2.38,3.27-4.65,4.65-6.73,2.8-4.22,4.91-7.84,6.39-10.3Z"/>
    <path class="cls-36" d="m217.77,494.21c-3.41-6.52-5.49-14.57-5.65-23.34-.16-8.76,1.61-16.9,4.78-23.52,3.41,6.52,5.49,14.57,5.65,23.34.16,8.76-1.61,16.9-4.78,23.52,7.89-3.96,13.75-9.27,18.24-15.44,4.8-5.99,8.08-13.09,10.3-20.91,4.78-15.31,5.54-33.61,5.33-51.24-.05-4.46-.26-8.92-.5-13.23-.16-4.28-.42-8.47-.74-12.54-.61-8.18-1.43-15.76-2.16-22.31-1.32-12.83-2.75-21.33-2.75-21.33,0,0-1.48,1.66-4.07,4.49-2.51,2.93-6.1,7.1-10.01,12.54-3.93,5.46-8.58,11.7-12.88,19.03-4.22,7.34-8.69,15.21-12.28,23.79-3.54,8.61-6.79,17.42-8.71,26.51-1.95,9.05-2.88,18.08-2.48,26.66,1.11,17.37,7.97,32.89,22.7,43.98Z"/>
    <path class="cls-10" d="m346.63,484.89c5.96-4.3,11.62-8.66,16.42-13.07,4.99-4.28,9.53-8.29,13.12-11.91,3.59-3.62,6.71-6.52,8.76-8.71,2.06-2.09,3.14-3.38,3.14-3.38,0,0-7.66-1.66-19.61-2.88-5.97-.58-12.83-.87-20.43-.82-7.58.05-15.81.53-23.92,1.87-16.47,2.38-33.05,7.97-45.72,17.4-6.18,4.86-11.35,10.53-15,17.13-3.38,6.68-5.15,14.41-4.73,22.84,3.62-6.39,9.24-12.51,16.53-17.4,7.26-4.91,15.05-7.84,22.33-8.79-3.62,6.41-9.24,12.54-16.5,17.42-7.29,4.91-15.07,7.81-22.36,8.76,17.05,7.44,33.16,6.78,47.84,2.48,7.5-2.09,14.6-5.15,21.15-8.87,6.73-3.56,13.2-7.68,18.98-12.09Z"/>
    <path class="cls-28" d="m854.5,1390.98c-18.94-3.17-39.27-7.47-60.48-12.62,8.83-3.82,17.7-7.75,26.6-11.8l29.38-13.57c62.07-29.25,123-60.59,170.49-79.83,58-23.36,117.16-50.92,165.63-91.16,52.61-43.64,89.39-100.77,115.08-163.65,32.05-78.09,55.2-159.72,51.96-244.91-2.88-74.16-21.83-146.78-53.17-213.92-25.42-54.3-58.19-108.53-97.81-155.63,1.8-7.1,2.03-14.02.77-20.51-1.4-7.84-4.54-15.36-9.21-22.15-9.03-13.83-23.65-24.92-38.62-33.24-15.1-8.24-30.76-13.44-42.48-16.26-5.81-1.4-10.72-2.22-14.12-2.72-1.66-.21-2.93-.4-3.83-.45h-1.21s.16.4.45,1.14c.42.79.98,1.93,1.74,3.43,1.5,3.06,3.75,7.37,6.52,12.51,5.54,10.27,13.17,23.89,22.12,37.12,4.49,6.68,9.45,12.99,14.7,19.09,2.59,2.96,5.36,5.78,8.29,8.37,2.82,2.67,5.83,5.1,8.87,7.29,6.36,4.3,12.96,7.81,20.38,9.71,5.52,1.32,11.25,1.98,17.34,1.66,17,20.46,32.6,42.21,47.02,63.97,56.13,85.11,96.44,183.21,102.43,285.78,5.15,87.99-15.84,171.84-49,252.78-17.45,42.71-39.2,84.48-69.41,119.72-30.23,35.22-66.71,63.12-107.05,85.85-77.19,43.61-188.52,91.71-295.07,127.33l-31.49,10.16c-13.96,4.37-27.76,8.48-41.33,12.31-13.57-3.83-27.37-7.94-41.33-12.31l-31.49-10.16c-106.55-35.61-217.88-83.71-295.07-127.33-40.34-22.73-76.82-50.63-107.05-85.85-30.2-35.24-51.95-77.01-69.41-119.72-33.16-80.94-54.15-164.79-49-252.78,5.99-102.56,46.3-200.66,102.43-285.78,14.41-21.75,30.02-43.51,47.02-63.97,6.1.32,11.83-.34,17.35-1.66,7.42-1.9,14.02-5.41,20.38-9.71,3.04-2.19,6.05-4.62,8.87-7.29,2.93-2.59,5.7-5.41,8.29-8.37,5.25-6.1,10.22-12.41,14.7-19.09,8.95-13.23,16.58-26.85,22.12-37.12,2.77-5.15,5.02-9.45,6.52-12.51.77-1.5,1.32-2.64,1.74-3.43.29-.74.45-1.14.45-1.14h-1.21c-.9.05-2.16.24-3.83.45-3.41.5-8.32,1.32-14.12,2.72-11.72,2.82-27.38,8.03-42.48,16.26-14.97,8.32-29.59,19.4-38.62,33.24-4.67,6.78-7.81,14.31-9.21,22.15-1.27,6.49-1.03,13.41.76,20.51-39.63,47.1-72.39,101.32-97.81,155.63-31.34,67.13-50.29,139.76-53.17,213.92-3.25,85.19,19.9,166.82,51.95,244.91,25.69,62.88,62.46,120.01,115.08,163.65,48.47,40.23,107.63,67.79,165.63,91.16,47.49,19.25,108.42,50.58,170.49,79.83l29.38,13.57c8.9,4.04,17.77,7.98,26.6,11.8-21.2,5.15-41.53,9.46-60.47,12.62-5.73,1,12.12,31.57,17.87,30.57,26.22-4.38,55.67-13.46,86.63-25.22,30.96,11.76,60.42,20.84,86.63,25.22,5.76,1,23.6-29.57,17.87-30.57Zm321.39-1000.92c-6.2-6.2-10.53-13.31-12.86-20.27,6.97,2.32,14.04,6.71,20.25,12.91,6.18,6.2,10.53,13.31,12.83,20.28-6.94-2.35-14.05-6.71-20.22-12.91Zm-859.17-7.37c6.2-6.2,13.28-10.59,20.25-12.91-2.32,6.97-6.65,14.07-12.86,20.27-6.18,6.2-13.28,10.56-20.22,12.91,2.3-6.97,6.65-14.07,12.83-20.28Z"/>
    <path class="cls-24" d="m202.99,619.74c.08-.03.19-.03.26-.05-.08,0-.13-.03-.21-.03-.03.03-.03.05-.05.08Z"/>
    <path class="cls-54" d="m178.75,746.88h-.05v.03s.03-.03.05-.03Z"/>
    <path class="cls-25" d="m134.08,750.52s0-.03-.03-.05v.03s.03.03.03.03Z"/>
    <path class="cls-55" d="m142.06,887.72c.16.08.29.16.45.24-.03-.16-.05-.34-.11-.5l-.08.24c-.08,0-.18.03-.26.03Z"/>
    <polygon class="cls-46" points="186.17 877.85 186.14 877.82 186.14 877.85 186.17 877.85"/>
    <path class="cls-65" d="m222.29,1005.78c.05-.08.13-.16.19-.24-.05.05-.13.08-.21.13,0,.03.03.08.03.11Z"/>
    <path class="cls-62" d="m518.46,1262.52c-.05-.18-.08-.37-.16-.55-.18.08-.37.16-.55.21.24.13.48.24.71.34Z"/>
    <path class="cls-59" d="m389.66,1205.1v-.05h-.08s.05.03.08.05Z"/>
    <path class="cls-16" d="m358.64,1232.55s-.03-.03-.05-.05c0,.03-.03.05-.05.08.03,0,.08-.03.11-.03Z"/>
    <path class="cls-33" d="m180.52,1020.49c-.21-.29-.42-.61-.66-.9-.03.29-.08.55-.13.84.26.03.53.05.79.05Z"/>
    <path class="cls-5" d="m1104.9,1281.29c-17.74-4.3-36.33-7.47-53.38-6.68-8.58.34-16.63,1.82-24.53,4.59-7.84,2.82-15.26,7.15-23.31,13.23,0,.03.03.05.03.08,7.08-2.01,15.36-2.38,23.97-.74,8.61,1.64,16.21,5.04,22.04,9.5-7.08,2.01-15.39,2.38-24,.74-8.61-1.64-16.16-5.04-22.02-9.48,5.2,17.69,20.8,28.88,39.1,34.08,18.43,5.31,39.6,4.86,58.95,1.5,19.54-3.38,37.43-9.66,50.37-15.18,12.88-5.49,20.96-10.19,20.96-10.19,0,0-8.26-3.22-20.8-7.44-12.7-4.36-29.59-9.66-47.39-14.02Z"/>
    <path class="cls-19" d="m1011.71,1226.64c-1.72,7.15-5.44,14.6-11.09,21.3-5.44,6.47-11.85,11.3-18.37,14.23,8,3.25,16.16,3.56,23.79,2.09,7.92-1.5,15.26-5.23,21.83-10.11,13.2-9.93,23.26-25.08,30.17-40.63,7-15.52,10.8-31.52,12.78-43.4.98-5.94,1.58-10.96,1.9-14.41.37-3.48.4-5.52.4-5.52,0,0-6.13,3.33-15.18,8.98-9,5.7-21.04,13.62-32.74,23.13-11.7,9.53-23.02,20.62-31.02,33.45-7.95,12.88-13.02,27.61-12.62,46.17.05.03.08.03.13.05,1.74-6.97,5.46-14.23,10.96-20.75,5.62-6.71,12.33-11.64,19.06-14.57Z"/>
    <path class="cls-31" d="m1232.91,1196.28c-18.43.58-37.17,1.93-53.22,6.84-16.08,4.99-29.52,13.52-38.33,29.33t.05.05c5.54-4.8,12.88-8.66,21.36-10.82,8.47-2.16,16.82-2.3,24-.74-5.57,4.8-12.94,8.69-21.41,10.85-8.45,2.19-16.74,2.3-23.89.79,11.06,14.84,26.77,21.57,44.54,22.44,17.79.84,37.51-4.36,55.57-12.51,18.08-8.18,34.45-19.32,46.07-28.91,5.73-4.7,10.35-9.06,13.52-11.99,3.19-3.12,4.91-4.99,4.91-4.99,0,0-8.79-.16-22.86-.4-13.68-.05-31.94-.5-50.29.05Z"/>
    <path class="cls-49" d="m1110.34,1205.05c.21-7.31,2.35-15.36,6.49-23.05,4.14-7.71,9.69-13.94,15.68-18.16-.21,7.34-2.35,15.39-6.49,23.1-4.12,7.71-9.64,13.89-15.6,18.11,17.53.9,31.63-7.52,41.71-20.33,10.11-12.88,16.05-29.96,18.51-46.62,2.51-16.74,1.66-32.68-.26-44.38-.9-5.81-1.9-10.51-2.75-13.83-.87-3.27-1.5-5.1-1.5-5.1,0,0-1.11,1.03-2.9,3.12-1.95,1.98-4.67,4.91-7.84,8.58-6.52,7.34-15.36,17.53-24.08,29.51-8.66,11.96-17.21,25.66-22.02,40.63-4.86,14.97-6.04,31.31,1.06,48.42Z"/>
    <path class="cls-70" d="m1325.1,1074.39c-4.07,1.93-7.97,3.85-11.99,6.05-4.2,2.38-8.32,4.8-12.3,7.34-4.01,2.38-7.95,4.75-11.67,7.26-3.67,2.53-7.37,4.96-10.64,7.63-13.52,10.61-23.55,22.7-27.69,40.47,5.57-4.8,12.94-8.69,21.41-10.85,8.5-2.19,16.82-2.3,24-.77-5.54,4.83-12.91,8.71-21.41,10.88-8.47,2.16-16.82,2.3-24,.74v.03c14.84,11.14,32.23,13.01,50.16,7.29,17.9-5.65,36.14-19.09,50.87-36.67,1.77-2.24,3.56-4.51,5.39-6.73l2.53-3.43,2.09-2.77c2.61-3.62,5.07-7.23,7.39-10.74,4.62-7.1,8.55-13.78,11.83-19.59,3.25-5.78,5.83-10.74,7.52-14.15,1.58-3.56,2.35-5.65,2.35-5.65,0,0-8.16,2.32-20.8,6.28-12.57,4.01-29.04,9.87-45.04,17.4Z"/>
    <path class="cls-1" d="m1244.45,1039.36c-4.65-16.5-11.38-31.47-16.97-42.11-2.83-5.36-5.23-9.61-7.29-12.65-1.93-3.01-3.17-4.7-3.17-4.7,0,0-.63,1.69-1.69,4.59-1.24,2.93-3.06,7.1-4.96,12.3-1.87,5.1-3.99,11.19-5.89,18.03-1.87,6.6-3.88,15.02-4.41,20.01-1.58,11.85-3.51,25.87-2.67,40.73.95,14.81,4.67,30.57,16.39,44.93h.03c-1.48-7.21-1.27-15.52.98-24,2.27-8.45,6.2-15.79,11.09-21.28,1.48,7.18,1.27,15.5-1,23.97-2.24,8.47-6.2,15.79-11.06,21.3,16.84-3.93,27.93-16.55,32.68-31.92,1.08-3.91,2.06-7.81,2.46-11.93.37-4.17.55-8.26.32-12.38-.37-4.17-.95-8.29-1.77-12.25-.84-4.25-1.87-8.5-3.06-12.67Z"/>
    <path class="cls-42" d="m1372.25,940.02c-14.84,10.27-29.54,21.7-39.1,34.98-2.27,3.38-4.73,6.65-6.63,10.16-2.01,3.46-3.59,7.08-4.75,10.8-2.24,7.26-2.96,15.05-1.64,23.63,4.14-5.68,10.08-10.93,17.4-14.92,7.68-4.22,15.71-6.39,23.05-6.68-4.2,6.05-10.35,11.62-18.06,15.84-7.42,4.04-15.13,6.23-22.25,6.6v.05c17.74,5.15,34.08,1.19,48.73-8.24,3.72-2.38,7.26-5.04,10.69-7.97,3.48-2.96,6.89-6.1,9.79-9.66,5.97-6.97,11.46-14.81,16.39-22.78,10.22-15.76,16.37-33.11,20.78-45.99,2.22-6.49,3.83-11.88,4.83-15.71,1-3.8,1.35-6.07,1.35-6.07,0,0-7.52,3.96-19.38,10.35-11.59,6.39-26.8,15.31-41.21,25.61Z"/>
    <path class="cls-21" d="m1277.53,1005.54c-4.57-5.68-8.18-13.02-10.11-21.46-1.93-8.55-1.85-16.87-.11-24.02,4.67,5.7,8.34,13.17,10.3,21.7,1.95,8.5,1.85,16.79.13,23.92.05.03.13.08.19.11,7.02-4.96,12.12-11.11,15.55-18.08,1.74-3.48,3.09-7.15,4.01-10.96.98-3.78,1.61-7.68,1.56-11.8.11-16.29-4.54-33.45-11.77-48.6-7.63-15.31-17.05-28.54-24.6-37.8-3.75-4.62-6.97-8.24-9.53-10.74-2.46-2.53-3.99-3.88-3.99-3.88,0,0-.29,1.64-.79,4.67-.66,2.96-1.64,7.23-2.51,12.43-1.93,10.4-2.83,24.71-3.85,39.92-.24,7.66,0,15.58,1.03,23.5.29,2.03.61,4.01.9,5.99.24,1.87.53,3.88.87,5.81.77,3.85,1.66,7.74,2.9,11.48,4.81,14.89,13.97,28.59,29.83,37.83Z"/>
    <path class="cls-20" d="m1442.84,748.89s-6.73,5.78-16.29,14.76c-9.24,9.11-22.6,21.25-34.64,34.53-2.98,3.33-5.89,6.73-8.74,10.16-2.74,3.51-5.54,7.02-8.34,10.53-5.44,7.05-10.19,14.34-13.57,21.81-1.74,3.67-3.01,7.44-4.2,11.25-1.24,3.78-2.11,7.63-2.59,11.51-.87,7.68.03,15.68,3.11,24.02,1.29-7.08,4.51-14.57,9.58-21.46,5.2-7.05,11.56-12.41,18.11-15.76-1.24,7.23-4.49,14.92-9.69,21.96-5.07,6.89-11.27,12.17-17.66,15.52,18.35,1.64,33.53-5.44,46.15-17.66,3.11-3.06,6.18-6.44,8.98-10.01,2.72-3.67,5.1-7.63,7.34-11.69,4.51-8.26,8.37-17.13,11.64-26.11,1.74-4.46,2.85-9.05,3.91-13.52,1.08-4.51,2.06-8.92,2.82-13.23,1.61-8.63,3.01-16.66,3.49-23.55.82-13.86.58-23.07.58-23.07Z"/>
    <path class="cls-12" d="m1299.68,858.47c-3.54-8.03-5.02-16.21-4.65-23.55,5.65,4.7,10.67,11.33,14.2,19.35,3.51,8.03,4.99,16.21,4.62,23.55,5.91-6.1,9.66-13.12,11.75-20.59,1.03-3.67,1.64-7.52,1.85-11.4.08-3.85-.47-7.81-1.11-11.72-1.56-7.95-4.38-15.76-8.03-23.26-.87-1.87-1.85-3.75-2.88-5.54-1.14-1.82-2.32-3.67-3.49-5.44-2.48-3.51-4.99-6.94-7.66-10.16-5.31-6.49-10.9-12.38-16.32-17.53-2.61-2.53-5.44-4.91-8.21-7.1-2.75-2.16-5.33-4.14-7.74-5.89-9.71-7-16.53-10.74-16.53-10.74,0,0-.19,6.63.95,16.74.34,2.53.45,5.31.66,8.26.24,2.93.5,6.05.87,9.32.74,6.49,2.22,13.54,3.62,20.72,1.24,7.29,3.06,14.7,5.65,22.04,1.27,3.67,2.77,7.29,4.46,10.85,1.48,3.51,3.12,6.97,5.07,10.35,7.71,13.38,19.46,25.08,37.04,31.13-5.65-4.73-10.64-11.35-14.15-19.38Z"/>
    <path class="cls-26" d="m1358.55,704.25c-1.85,8.03-2.46,15.95-1.19,23.63.53,3.8,1.8,7.63,3.12,11.38,1.32,3.8,3.06,7.52,5.46,11.22,1.27-7.23,4.49-14.89,9.69-21.91,5.2-7.05,11.56-12.43,18.11-15.76-1.27,7.23-4.51,14.89-9.71,21.94-5.2,7.08-11.54,12.41-18.08,15.76.03,0,.03.03.03.03,18.27-2.59,32.34-13.04,41.05-28.06,4.51-7.47,8.05-16.1,10.75-25.26,2.46-9.05,3.67-18.66,4.49-28.19.42-4.8.71-9.56.71-14.2-.11-4.62-.34-9.13-.71-13.49-.63-8.76-1.58-16.84-2.64-23.73-2.75-13.52-5.36-22.28-5.36-22.28,0,0-5.04,7.23-11.96,18.32-3.35,5.54-7.34,12.04-11.8,19.27-4.3,7.18-8.74,14.92-12.86,22.78-3.88,7.95-8.16,16.16-11.62,24.29-3.46,8.18-5.91,16.29-7.47,24.29Z"/>
    <path class="cls-60" d="m1323.49,701.9c-3.27-7.18-8.26-14.02-13.68-20.25-2.75-3.12-5.7-6.05-8.76-8.87-3.01-2.82-6.55-5.46-9.9-7.89-13.67-9.69-27.46-16.68-38.89-20.8-11.19-4.2-18.74-6.05-18.74-6.05,0,0,1.56,6.36,5.2,15.76,1.61,4.7,3.38,10.27,5.89,16.21,1.19,2.96,2.53,6.05,4.07,9.16,1.53,3.12,2.72,6.34,4.36,9.56,3.01,6.55,6.89,13.04,11.19,19.32,3.88,6.34,8.58,12.43,14.12,17.85,11.3,10.69,24.5,19.19,42.9,20.99-6.57-3.22-13.04-8.47-18.35-15.42-5.33-6.94-8.71-14.55-10.11-21.78,6.6,3.22,13.07,8.47,18.4,15.44,5.33,6.94,8.71,14.52,10.11,21.75.08,0,.13.03.21.03,2.32-3.64,3.99-7.39,5.28-11.17,1.16-3.75,1.5-7.58,1.56-11.38,0-7.66-1.77-15.23-4.86-22.47Z"/>
    <path class="cls-40" d="m1322.83,585.87c.74,3.85,1.9,7.58,3.46,11.14,1.53,3.54,3.49,6.94,5.94,10.11,2.19,3.27,4.94,6.44,8.21,9.37h.03v-.03c-2.64-6.86-3.75-15.1-2.9-23.81.87-8.71,3.59-16.58,7.5-22.81,2.64,6.86,3.75,15.13,2.9,23.84-.87,8.71-3.59,16.55-7.5,22.78,8.5-3.59,15.37-8.74,20.86-15.13,5.54-6.44,9.06-13.89,11.62-22.31,1.21-4.17,2.14-8.53,2.8-13.07.74-4.51,1.22-9.24,1.08-13.83,0-9.32-.98-18.88-2.51-28.3-3.7-18.37-9.53-35.85-15.44-48.15-2.77-6.23-5.25-11.25-7.1-14.76-1.87-3.46-3.06-5.36-3.06-5.36,0,0-2.98,8.03-7.31,20.57-4.28,12.54-9.16,28.99-13.62,46.46-2.27,8.74-3.75,17.4-5.07,26.16-1.37,8.79-1.93,17.24-1.37,25.32.45,3.96.74,7.97,1.5,11.8Z"/>
    <path class="cls-63" d="m1297.8,596.32c-1-3.67-2.35-7.23-3.99-10.61-1.77-3.41-3.78-6.68-6.42-9.69-5.12-6.05-11.38-11.4-18.16-16.05-6.86-4.57-14.78-8.24-22.39-11.35-3.83-1.56-7.71-2.88-11.4-4.07-3.77-1.19-7.71-2.09-11.35-2.98-7.44-1.69-14.28-2.82-20.12-3.51-5.86-.74-10.69-1.08-14.23-1.24-3.43-.16-5.44-.16-5.44-.16,0,0,.84,1.5,2.4,3.99,1.48,2.46,3.59,6.07,6.39,10.3,1.37,2.09,2.96,4.36,4.65,6.73.92,1.14,1.74,2.38,2.72,3.62.87,1.29,1.74,2.59,2.67,3.88,3.7,5.25,8.13,10.69,12.99,16.1,4.57,5.49,9.72,10.93,15.5,15.89,1.45,1.24,2.93,2.48,4.41,3.62,1.43,1.24,2.83,2.43,4.36,3.56,3.06,2.27,6.18,4.36,9.53,6.28,6.6,3.78,14.1,6.65,21.75,8.42,7.68,1.66,16.08,2.14,25.08.63-7.18-1.21-14.76-4.36-21.81-9.42-7.1-5.12-12.54-11.43-15.94-17.93,7.23,1.16,14.94,4.33,22.04,9.45,7.1,5.1,12.51,11.38,15.92,17.87,1.29-4.07,2.03-8.08,2.24-12.04,0-3.85-.5-7.63-1.4-11.3Z"/>
    <path class="cls-53" d="m1263.99,478.77c4.49,6.18,10.35,11.48,18.24,15.44-3.17-6.63-4.94-14.76-4.78-23.52.16-8.76,2.24-16.82,5.65-23.34,3.17,6.63,4.94,14.76,4.78,23.52-.16,8.76-2.24,16.82-5.65,23.34,14.73-11.09,21.6-26.61,22.7-43.98.4-8.58-.53-17.61-2.48-26.66-1.93-9.08-5.17-17.9-8.71-26.51-3.59-8.58-8.05-16.45-12.28-23.79-4.3-7.34-8.95-13.57-12.88-19.03-3.91-5.44-7.5-9.61-10.01-12.54-2.59-2.82-4.07-4.49-4.07-4.49,0,0-1.43,8.5-2.75,21.33-.74,6.55-1.56,14.12-2.16,22.31-.32,4.07-.58,8.26-.74,12.54-.24,4.3-.45,8.76-.5,13.23-.21,17.63.56,35.93,5.33,51.24,2.22,7.81,5.49,14.92,10.3,20.91Z"/>
    <path class="cls-50" d="m1221.61,463.4c-12.67-9.42-29.25-15.02-45.72-17.4-8.1-1.35-16.34-1.82-23.92-1.87-7.6-.05-14.47.24-20.43.82-11.96,1.21-19.62,2.88-19.62,2.88,0,0,1.08,1.29,3.14,3.38,2.06,2.19,5.17,5.1,8.76,8.71,3.59,3.62,8.13,7.63,13.12,11.91,4.81,4.41,10.46,8.76,16.42,13.07,5.78,4.41,12.25,8.53,18.98,12.09,6.55,3.72,13.65,6.78,21.15,8.87,14.68,4.3,30.78,4.96,47.84-2.48-7.29-.95-15.07-3.85-22.36-8.76-7.26-4.88-12.88-11.01-16.5-17.42,7.29.95,15.07,3.88,22.33,8.79,7.29,4.88,12.91,11.01,16.53,17.4.42-8.42-1.35-16.16-4.73-22.84-3.64-6.6-8.82-12.28-14.99-17.13Z"/>
    <path class="cls-51" d="m1297.01,619.74s-.03-.05-.05-.08c-.08,0-.13.03-.21.03.08.03.19.03.26.05Z"/>
    <path class="cls-32" d="m1321.3,746.91v-.03h-.05s.03.03.05.03Z"/>
    <path class="cls-58" d="m1365.92,750.52s.03,0,.03-.03v-.03s-.03.03-.03.05Z"/>
    <path class="cls-39" d="m1357.6,887.46c-.05.16-.08.34-.11.5.16-.08.29-.16.45-.24-.08,0-.18-.03-.26-.03l-.08-.24Z"/>
    <polygon class="cls-47" points="1313.85 877.85 1313.85 877.82 1313.83 877.85 1313.85 877.85"/>
    <path class="cls-29" d="m1277.71,1005.78s.03-.08.03-.11c-.08-.05-.16-.08-.21-.13.05.08.13.16.19.24Z"/>
    <path class="cls-30" d="m982.25,1262.18c-.19-.05-.37-.13-.55-.21-.08.18-.11.37-.16.55.24-.11.48-.21.71-.34Z"/>
    <path class="cls-66" d="m1110.34,1205.1s.05-.03.08-.05h-.08v.05Z"/>
    <path class="cls-9" d="m1141.36,1232.55s.08.03.11.03c-.03-.03-.05-.05-.05-.08t-.05.05Z"/>
    <path class="cls-17" d="m1319.48,1020.49c.26,0,.53-.03.79-.05-.05-.29-.11-.55-.13-.84-.24.29-.45.61-.66.9Z"/>
  </g>
  <g>
    <path class="cls-35" d="m702.38,561.79c-29.75,3.4-35.71,7.23-52.28,46.33-12.33,28.48-57.38,137.3-90.54,226.56h-14.45c-29.33-79.06-65.89-172.58-90.54-234.21-13.18-32.31-19.98-36.13-46.33-38.68v-12.75h109.24v12.75c-31.03,3.4-32.3,6.8-25.5,25.93,11.9,31.03,44.21,115.19,72.26,186.18h.85c22.95-56.11,54.41-137.3,68.01-178.95,8.5-25.08,5.95-28.91-29.33-33.16v-12.75h98.62v12.75Z"/>
    <path class="cls-34" d="m726.2,830.01v-12.33c35.71-2.98,39.11-5.53,39.11-42.08v-171.73c0-36.98-3.4-39.53-39.11-42.08v-12.75h117.32v12.75c-35.71,2.55-39.11,5.1-39.11,42.08v171.73c0,36.98,3.4,39.11,39.11,42.08v12.33h-117.32Z"/>
    <path class="cls-56" d="m990.17,549.04c31.03,0,55.68,5.1,73.11,17.85,17.43,12.75,28.48,33.16,28.48,61.21,0,56.53-42.08,83.74-85.01,88.84-6.8.85-14.88.85-19.98.43l-32.31-8.5v67.16c0,36.56,3.83,38.68,43.36,42.08v11.9h-120.3v-11.9c34.86-3.4,38.26-6.8,38.26-42.51v-171.73c0-38.26-3.4-39.96-35.71-42.08v-12.75h110.09Zm-35.71,145.37c5.53,2.13,17.43,5.1,31.03,5.1,27.63,0,62.49-14.45,62.49-69.71,0-47.18-30.18-66.31-65.04-66.31-11.9,0-20.83,2.13-23.8,5.1-3.4,2.55-4.68,7.65-4.68,19.98v105.84Z"/>
  </g>
  <g>
    <path class="cls-7" d="m441.87,981.52c-8.84-10.12-18.61-21.64-29.2-34.2-2.79-3.38-4.42-3.84-6.52-3.49v22.34c0,10.35,1.16,11.17,11.05,11.98v3.37h-31.53v-3.37c8.96-.82,10.01-1.63,10.01-11.98v-46.07c0-10.59-1.05-11.29-10.47-11.98v-3.49h31.41v3.49c-9.31.7-10.47,1.51-10.47,11.98v20.59c2.79-.58,5.12-2.33,8.49-5.59,6.75-6.4,14.54-14.31,19.78-20.71,3.49-4.07,3.38-5.35-1.98-6.05l-2.68-.23v-3.49h28.97v3.49c-8.96.81-11.98,1.98-19.54,8.73-4.77,4.31-13.03,12.57-20.83,20.36,8.96,11.17,21.76,25.71,27.92,32.34,6.28,6.63,8.84,7.79,14.54,8.61v3.37h-18.96Z"/>
    <path class="cls-18" d="m511.33,981.52v-3.37c7.56-1.05,8.61-2.1,6.98-6.63-1.51-4.65-3.72-10.82-6.28-17.92h-25.59c-1.86,5.47-3.49,10.24-5,15.01-2.68,7.33-1.75,8.61,7.45,9.54v3.37h-26.29v-3.37c7.68-1.16,9.31-1.98,13.61-12.33l24.78-61.89,3.96-1.05c7.56,20.59,15.47,42.35,23.15,63.06,3.72,10.24,5.35,11.4,13.15,12.22v3.37h-29.9Zm-11.52-62.71h-.23c-3.95,9.89-7.56,20.13-11.05,29.78h21.64l-10.35-29.78Z"/>
    <path class="cls-64" d="m631.39,908.11c-9.77.7-10.7,1.4-10.7,11.29v47.35c0,10.01.93,10.59,10.7,11.4v3.37h-32.58v-3.37c10.12-.82,11.17-1.4,11.17-11.4v-23.38h-40.6v23.38c0,9.89,1.05,10.59,10.82,11.4v3.37h-31.88v-3.37c9.42-.82,10.47-1.4,10.47-11.4v-47.35c0-9.89-1.05-10.59-10.82-11.29v-3.49h31.65v3.49c-9.19.7-10.24,1.4-10.24,11.29v18.96h40.6v-18.96c0-9.89-1.05-10.59-10.35-11.29v-3.49h31.76v3.49Z"/>
    <path class="cls-48" d="m718.53,908.11c-8.14.93-9.77,1.98-14.31,12.68-3.37,7.8-15.71,37.58-24.78,62.01h-3.96c-8.03-21.64-18.03-47.23-24.78-64.1-3.61-8.84-5.47-9.89-12.68-10.59v-3.49h29.9v3.49c-8.49.93-8.84,1.86-6.98,7.1,3.26,8.49,12.1,31.53,19.78,50.96h.23c6.28-15.36,14.89-37.58,18.61-48.98,2.33-6.86,1.63-7.91-8.03-9.08v-3.49h26.99v3.49Z"/>
    <path class="cls-22" d="m786.12,962.67c-.7,4.07-3.02,15.12-4.07,18.85h-58.17v-3.37c10.94-.93,11.87-1.86,11.87-11.52v-46.77c0-10.59-.93-11.05-10.12-11.75v-3.49h53.52c.12,3.03.7,11.05,1.16,17.22l-3.61.47c-1.16-4.77-2.33-7.45-3.96-10.12-1.75-2.44-4.89-3.26-13.38-3.26h-8.84c-3.84,0-4.07.23-4.07,3.72v26.76h11.05c10.7,0,11.4-.93,12.91-8.84h3.49v22.8h-3.49c-1.63-8.49-2.44-9.19-12.8-9.19h-11.17v22.1c0,5.59.7,8.14,2.91,9.54,2.33,1.39,6.51,1.51,12.22,1.51,8.84,0,12.33-.93,15.01-3.95,1.98-2.44,4.3-6.52,6.05-11.17l3.49.46Z"/>
    <path class="cls-8" d="m876.64,908.11c-9.77.7-10.7,1.4-10.7,11.29v47.35c0,10.01.93,10.59,10.7,11.4v3.37h-32.58v-3.37c10.12-.82,11.17-1.4,11.17-11.4v-23.38h-40.6v23.38c0,9.89,1.05,10.59,10.82,11.4v3.37h-31.88v-3.37c9.42-.82,10.47-1.4,10.47-11.4v-47.35c0-9.89-1.05-10.59-10.82-11.29v-3.49h31.65v3.49c-9.19.7-10.24,1.4-10.24,11.29v18.96h40.6v-18.96c0-9.89-1.05-10.59-10.35-11.29v-3.49h31.76v3.49Z"/>
    <path class="cls-61" d="m927.71,981.52v-3.37c7.56-1.05,8.61-2.1,6.98-6.63-1.51-4.65-3.72-10.82-6.28-17.92h-25.59c-1.86,5.47-3.49,10.24-5,15.01-2.68,7.33-1.75,8.61,7.45,9.54v3.37h-26.29v-3.37c7.68-1.16,9.31-1.98,13.61-12.33l24.78-61.89,3.96-1.05c7.56,20.59,15.47,42.35,23.15,63.06,3.72,10.24,5.35,11.4,13.15,12.22v3.37h-29.9Zm-11.52-62.71h-.23c-3.95,9.89-7.56,20.13-11.05,29.78h21.64l-10.35-29.78Z"/>
    <path class="cls-44" d="m1046.38,908.11c-6.63.35-9.42,1.75-10.01,7.1-.35,3.61-.7,8.96-.7,19.89v47.58h-3.84l-51.42-61.78h-.23v29.32c0,10.82.35,16.4.7,19.89.7,5.93,3.26,7.56,11.52,8.03v3.37h-28.39v-3.37c6.75-.35,9.77-1.98,10.47-7.68.35-3.84.7-9.42.7-20.24v-25.71c0-8.61-.23-9.31-2.33-12.1-2.56-2.91-5.12-3.84-10.7-4.31v-3.49h18.15l50.03,58.87h.35v-28.39c0-10.94-.47-16.29-.81-19.66-.58-5.35-3.49-6.86-11.87-7.33v-3.49h28.39v3.49Z"/>
    <path class="cls-68" d="m1114.79,962.67c-.7,4.07-3.02,15.12-4.07,18.85h-58.17v-3.37c10.94-.93,11.87-1.86,11.87-11.52v-46.77c0-10.59-.93-11.05-10.12-11.75v-3.49h53.52c.12,3.03.7,11.05,1.16,17.22l-3.61.47c-1.16-4.77-2.33-7.45-3.96-10.12-1.75-2.44-4.89-3.26-13.38-3.26h-8.84c-3.84,0-4.07.23-4.07,3.72v26.76h11.05c10.7,0,11.4-.93,12.91-8.84h3.49v22.8h-3.49c-1.63-8.49-2.44-9.19-12.8-9.19h-11.17v22.1c0,5.59.7,8.14,2.91,9.54,2.33,1.39,6.51,1.51,12.22,1.51,8.84,0,12.33-.93,15.01-3.95,1.98-2.44,4.3-6.52,6.05-11.17l3.49.46Z"/>
  </g>
</svg>